<svg version="1.1" id="Layer_1" xmlns="http://www.w3.org/2000/svg" xmlns:xlink="http://www.w3.org/1999/xlink" x="0px" y="0px"
	 width="100%" viewBox="0 0 1024 1024" enable-background="new 0 0 1024 1024" xml:space="preserve">
<path fill="#000000" opacity="1.000000" stroke="none" 
	d="
M406.834534,750.213928 
	C387.619080,739.638428 366.879089,736.999084 345.850983,735.279846 
	C322.183777,733.344604 302.342133,718.330688 295.960266,697.307251 
	C288.626160,673.147095 294.126282,652.191101 313.134308,635.285156 
	C336.590607,614.422974 371.381470,616.345337 393.212189,639.456299 
	C398.041809,644.569153 401.993591,650.317993 405.896973,656.137390 
	C428.616821,690.009338 459.359314,711.775146 500.472992,716.274414 
	C536.558472,720.223389 569.133118,710.420654 597.489746,687.549927 
	C622.670837,667.240234 637.997253,640.915222 643.179260,609.078552 
	C649.189575,572.153137 640.248901,539.112488 615.808899,510.428955 
	C595.643188,486.761658 569.963928,472.662079 539.770996,466.756348 
	C529.366150,464.721161 518.600891,464.597504 508.042938,463.263519 
	C480.718658,459.811035 459.527374,440.603851 456.444122,415.146637 
	C452.716675,384.370911 474.210999,358.454071 503.700806,355.552002 
	C524.929688,353.462921 541.227905,361.755005 554.211670,377.946930 
	C559.640747,384.717560 564.471924,391.902557 569.316101,399.088226 
	C584.721802,421.940521 606.776978,434.046234 633.246338,440.001038 
	C649.528076,443.663971 665.952576,443.624908 682.353455,444.612457 
	C706.923523,446.091919 725.793335,460.055664 732.211670,483.637390 
	C736.908020,500.892334 733.066589,517.276184 723.822937,532.461609 
	C699.446594,572.506897 700.528870,613.138184 722.444458,653.446289 
	C734.045837,674.784302 733.119019,699.952820 717.600830,717.737305 
	C708.470337,728.201294 696.392883,733.185120 682.839844,734.265747 
	C668.393066,735.417419 653.970215,736.345764 640.023254,740.734558 
	C606.493958,751.285400 581.367432,772.230713 563.846985,802.464966 
	C555.968201,816.060974 546.338440,827.718262 531.054016,833.228882 
	C507.592926,841.687439 482.505371,833.354797 467.581604,812.284668 
	C460.943787,802.913086 455.874146,792.518494 448.589417,783.540405 
	C437.164764,769.460083 423.277771,758.553650 406.834534,750.213928 
M675.619812,584.129639 
	C672.283691,587.132812 668.747192,589.946350 665.671753,593.196228 
	C662.969421,596.051941 663.474121,599.951904 666.450562,600.529297 
	C671.021484,601.415894 676.316772,602.391052 679.623413,598.332703 
	C686.220459,590.235779 693.747620,582.861328 699.255249,573.903503 
	C700.424561,572.001709 702.200195,569.619507 699.753357,567.647705 
	C697.381531,565.736267 695.179932,567.156189 693.138428,568.964478 
	C687.533875,573.928833 681.818848,578.768616 675.619812,584.129639 
z"/>
<path fill="#000000" opacity="1.000000" stroke="none" 
	d="
M309.264709,287.305542 
	C321.000000,274.878357 335.116699,269.239197 351.852173,268.928833 
	C401.670410,268.005035 438.336456,244.630707 463.280334,202.199661 
	C472.280243,186.890213 483.672058,175.184601 501.742432,171.443451 
	C523.853638,166.865723 547.045532,176.710358 558.371216,196.249313 
	C570.510437,217.191803 585.753784,235.101761 606.079224,248.539108 
	C623.970703,260.367401 643.557861,266.854553 664.878113,268.885895 
	C672.169617,269.580597 679.533325,268.946808 686.757996,270.509491 
	C708.379272,275.186005 723.322449,287.553253 728.448547,309.320557 
	C733.468750,330.638123 727.671753,349.474579 710.589844,363.666687 
	C684.786133,385.105133 649.492615,381.095154 627.441772,354.664124 
	C623.497864,349.936798 619.880066,344.925537 616.285278,339.920746 
	C594.557129,309.669861 565.185669,292.398346 528.222778,288.149017 
	C493.571045,284.165375 461.617462,291.346558 433.351746,312.281342 
	C407.368958,331.525238 390.454407,356.935455 385.033600,388.958679 
	C379.128571,423.842560 387.891205,455.405304 409.883942,483.072327 
	C430.444153,508.937225 457.360809,524.281189 489.774597,530.359375 
	C500.170044,532.308777 510.696533,531.173340 521.113220,532.603333 
	C549.017639,536.433960 569.853577,560.264832 569.528137,585.739380 
	C569.222046,609.699463 558.906128,627.395752 537.421082,637.221375 
	C515.369324,647.306274 494.282257,643.779968 475.310303,628.407593 
	C466.851074,621.553345 460.948822,612.633362 455.513489,603.497131 
	C443.232239,582.853455 427.020111,567.167419 403.587494,559.909851 
	C386.261871,554.543945 368.456146,552.788879 350.419037,552.286743 
	C329.903961,551.715576 313.086304,543.503723 302.242584,525.792725 
	C290.470825,506.565918 290.963257,486.177979 302.725403,467.554443 
	C321.802002,437.349548 325.584045,405.666412 315.960205,371.895691 
	C313.774506,364.225800 310.247223,357.031525 306.046051,350.156616 
	C296.728699,334.909454 294.895447,318.721130 300.768036,301.761322 
	C302.591095,296.496429 305.637085,291.931152 309.264709,287.305542 
z"/>
</svg>